<?xml version="1.0" encoding="utf-8"?>
<!-- Generator: Adobe Illustrator 23.0.1, SVG Export Plug-In . SVG Version: 6.00 Build 0)  -->
<svg version="1.1" id="Layer_1" xmlns="http://www.w3.org/2000/svg" xmlns:xlink="http://www.w3.org/1999/xlink" x="0px" y="0px"
	 viewBox="0 0 50.3 50.2" style="enable-background:new 0 0 50.3 50.2;" xml:space="preserve">
<style type="text/css">
	.st0{fill-rule:evenodd;clip-rule:evenodd;fill:#FFFFFF;}
</style>
<path class="st0" d="M8.6,39.4H6.9c-1.6,0-3.2-0.6-4.3-1.8c-1.2-1.2-1.8-2.7-1.8-4.3v-6.1c0-14.6,11-26.5,24.5-26.5
	s24.5,11.9,24.5,26.5v6.1c0,1.6-0.6,3.2-1.8,4.3c-1.2,1.2-2.7,1.8-4.3,1.8H42c-5.5,9.5-14.1,10.2-16.6,10.2S14.1,48.9,8.6,39.4z
	 M41.6,27.4C40.3,27.9,39,27,39,25.8c0-0.6,0-1.2-0.1-1.9c-3.6-0.5-7.4-3.9-7.5-7.6c-2.7,4.1-9.2,8.5-14.4,8.5
	c2.2-1.4,3.8-5.7,3.9-7.2c-1.2,2.2-5.9,6.4-9.3,7.1v1c0,1.3-1.4,2.1-2.6,1.6V35c0.6,0.5,1.3,0.9,2.1,1.2c0.5,0.1,0.8,0.5,1.1,0.9
	c4.5,8.3,11.1,8.3,13.1,8.3c1.9,0,7.6-0.1,12-6.5c-2.2,0.9-4.6,1.2-7.7,1.3c-0.8,1.2-2.4,2.1-4.3,2.1c-2.6,0-4.8-1.6-4.8-3.6
	s2.1-3.6,4.8-3.6c1.9,0,3.5,0.8,4.3,2c3.9-0.1,8.9-0.7,12-5.4C41.6,32,41.6,27.4,41.6,27.4z M19.1,26.1c1.4,0,2.5,1.4,2.5,3.1
	s-1.1,3.1-2.5,3.1s-2.5-1.4-2.5-3.1C16.6,27.5,17.7,26.1,19.1,26.1z M31.4,26.1c1.4,0,2.5,1.4,2.5,3.1s-1.1,3.1-2.5,3.1
	c-1.4,0-2.5-1.4-2.5-3.1C28.8,27.5,30,26.1,31.4,26.1z M42.5,23.1h2.8C43.6,12.6,35.2,4.7,25.2,4.7s-18.3,7.9-20,18.4H8
	c1-8.2,7-15.8,17.3-15.8S41.5,14.9,42.5,23.1z"/>
</svg>
